<?xml version="1.0" encoding="iso-8859-1"?>
<!-- Generator: Adobe Illustrator 16.0.0, SVG Export Plug-In . SVG Version: 6.00 Build 0)  -->
<!DOCTYPE svg PUBLIC "-//W3C//DTD SVG 1.1//EN" "http://www.w3.org/Graphics/SVG/1.1/DTD/svg11.dtd">
<svg version="1.1" id="Capa_1" xmlns="http://www.w3.org/2000/svg" xmlns:xlink="http://www.w3.org/1999/xlink" x="0px" y="0px"
	 width="800.333px" height="800.333px" viewBox="0 0 800.333 800.333" style="enable-background:new 0 0 800.333 800.333;"
	 xml:space="preserve">
<g>
	<g>
		<path d="M732.463,400.167L556.55,329.584l49.051-114.788l-114.786,49.051L420.231,87.935l-70.583,175.912l-114.79-49.051
			l49.051,114.788l-175.913,70.583L283.91,470.75l-49.051,114.789l114.79-49.052l70.583,175.912l70.583-175.912l114.786,49.052
			L556.55,470.75L732.463,400.167z M487.781,467.719l-67.55,168.355l-67.554-168.355l-168.354-67.551l168.354-67.551l67.554-168.356
			l67.55,168.356l168.356,67.551L487.781,467.719z"/>
		<g>
			<path d="M392.052,68.383V0l46.695,48.851V4.355h9.663v67.927l-46.695-48.727v44.828H392.052z"/>
		</g>
		<g>
			<path d="M439.1,744.638l-7.84,4.646c-1.464-2.543-2.858-4.201-4.187-4.977c-1.383-0.886-3.166-1.326-5.351-1.326
				c-2.682,0-4.908,0.761-6.676,2.281c-1.771,1.494-2.654,3.376-2.654,5.644c0,3.127,2.321,5.645,6.967,7.554l6.387,2.613
				c5.197,2.104,8.998,4.67,11.404,7.699c2.403,3.029,3.606,6.742,3.606,11.143c0,5.893-1.963,10.763-5.89,14.607
				c-3.952,3.873-8.859,5.812-14.721,5.812c-5.56,0-10.146-1.654-13.769-4.958c-3.565-3.302-5.793-7.939-6.677-13.911l9.788-2.156
				c0.44,3.761,1.215,6.359,2.321,7.796c1.99,2.765,4.895,4.147,8.708,4.147c3.015,0,5.517-1.01,7.508-3.025
				c1.989-2.015,2.984-4.572,2.984-7.668c0-1.241-0.174-2.381-0.519-3.418c-0.346-1.036-0.886-1.989-1.617-2.858
				c-0.733-0.87-1.681-1.687-2.841-2.443c-1.161-0.761-2.544-1.487-4.147-2.178l-6.178-2.568
				c-8.766-3.702-13.147-9.117-13.147-16.244c0-4.808,1.841-8.826,5.518-12.059c3.675-3.26,8.252-4.89,13.727-4.89
				C429.188,733.898,434.954,737.479,439.1,744.638z"/>
		</g>
		<g>
			<path d="M15.283,367.655l16.67,42.796l17.417-45.906l16.671,45.906l17.707-42.796H94.24l-28.613,68.093L49.163,390.38
				l-17.168,45.409L4.791,367.655H15.283z"/>
		</g>
		<g>
			<path d="M795.542,377.235h-25.67v15.385h24.923v9.082h-24.923V423.1h25.67v9.082h-35.331v-64.029h35.331V377.235z"/>
		</g>
	</g>
</g>
<g>
</g>
<g>
</g>
<g>
</g>
<g>
</g>
<g>
</g>
<g>
</g>
<g>
</g>
<g>
</g>
<g>
</g>
<g>
</g>
<g>
</g>
<g>
</g>
<g>
</g>
<g>
</g>
<g>
</g>
</svg>
