<?xml version="1.0" encoding="iso-8859-1"?>
<!-- Generator: Adobe Illustrator 19.0.0, SVG Export Plug-In . SVG Version: 6.00 Build 0)  -->
<svg version="1.1" id="Layer_1" xmlns="http://www.w3.org/2000/svg" xmlns:xlink="http://www.w3.org/1999/xlink" x="0px" y="0px"
	 viewBox="0 0 511.996 511.996" style="enable-background:new 0 0 511.996 511.996;" xml:space="preserve">
<g>
	<g>
		<path d="M264.535,380.41v-22.511c52.492-4.362,93.904-48.403,93.904-102.006s-41.412-97.643-93.904-102.006v-40.182l74.381,22.315
			c0.811,0.239,1.631,0.359,2.45,0.359c2.706,0,5.31-1.289,6.94-3.568c2.126-2.971,2.126-6.957,0-9.928L262.938,3.368
			c-3.21-4.49-10.688-4.49-13.898,0l-85.367,119.514c-2.117,2.971-2.117,6.957,0,9.928c2.126,2.971,5.916,4.251,9.399,3.21
			l74.389-22.315v40.183c-52.492,4.362-93.904,48.403-93.904,102.006s41.412,97.643,93.904,102.006v22.511l-74.329,74.329
			c-1.605,1.596-2.501,3.773-2.501,6.035v42.684c0,4.712,3.824,8.537,8.537,8.537h153.661c4.712,0,8.537-3.824,8.537-8.537v-42.684
			c0-2.262-0.896-4.439-2.501-6.036L264.535,380.41z M264.535,170.961c40.268,4.012,72.383,36.128,76.395,76.395h-25.858
			c-3.765-26.114-24.424-46.781-50.538-50.538V170.961z M264.535,314.968c26.114-3.765,46.781-24.424,50.538-50.538h25.858
			c-4.012,40.268-36.128,72.383-76.395,76.395V314.968z M247.461,340.825c-40.268-4.012-72.383-36.128-76.395-76.395h25.858
			c3.765,26.114,24.424,46.781,50.538,50.538V340.825z M247.461,196.81c-26.114,3.765-46.781,24.424-50.538,50.538h-25.858
			c4.012-40.259,36.128-72.375,76.395-76.395V196.81z"/>
	</g>
</g>
<g>
</g>
<g>
</g>
<g>
</g>
<g>
</g>
<g>
</g>
<g>
</g>
<g>
</g>
<g>
</g>
<g>
</g>
<g>
</g>
<g>
</g>
<g>
</g>
<g>
</g>
<g>
</g>
<g>
</g>
</svg>
